<?xml version="1.0" standalone="no"?>
<!DOCTYPE svg PUBLIC "-//W3C//DTD SVG 1.1//EN" "http://www.w3.org/Graphics/SVG/1.1/DTD/svg11.dtd">
<svg t="1694849497759" class="icon" viewBox="0 0 1024 1024" version="1.1"
  xmlns="http://www.w3.org/2000/svg" p-id="9306" xmlns:xlink="http://www.w3.org/1999/xlink"
  width="64" height="64">
  <path
    d="M921.6 0H102.4C45.8 0 0 45.8 0 102.4v819.3C0 978.2 45.8 1024 102.4 1024h819.3c56.5 0 102.4-45.8 102.4-102.4V102.4C1024 45.8 978.2 0 921.6 0zM307.2 819.2H204.8c-14.1 0-25.6-11.5-25.6-25.6 0-14.1 11.5-25.6 25.6-25.6h102.4c14.1 0 25.6 11.5 25.6 25.6 0 14.1-11.5 25.6-25.6 25.6z m25.6-190.1c0 20.1-16.4 36.5-36.5 36.5h-80.6c-20.1 0-36.5-16.4-36.5-36.5V241.3c0-20.1 16.4-36.5 36.5-36.5h80.6c20.1 0 36.5 16.4 36.5 36.5v387.8z m230.4 190.1H460.8c-14.1 0-25.6-11.5-25.6-25.6 0-14.1 11.5-25.6 25.6-25.6h102.4c14.1 0 25.6 11.5 25.6 25.6 0 14.1-11.5 25.6-25.6 25.6z m25.6-190.1c0 20.1-16.4 36.5-36.5 36.5h-80.6c-20.1 0-36.5-16.4-36.5-36.5V241.3c0-20.1 16.4-36.5 36.5-36.5h80.6c20.1 0 36.5 16.4 36.5 36.5v387.8z m230.4 190.1H716.8c-14.1 0-25.6-11.5-25.6-25.6 0-14.1 11.5-25.6 25.6-25.6h102.4c14.1 0 25.6 11.5 25.6 25.6 0 14.1-11.5 25.6-25.6 25.6z m25.6-190.1c0 20.1-16.4 36.5-36.5 36.5h-80.6c-20.1 0-36.5-16.4-36.5-36.5V241.3c0-20.1 16.4-36.5 36.5-36.5h80.6c20.1 0 36.5 16.4 36.5 36.5v387.8z"
    p-id="9307"></path>
</svg>