<?xml version="1.0" standalone="no"?>
<!DOCTYPE svg PUBLIC "-//W3C//DTD SVG 1.1//EN" "http://www.w3.org/Graphics/SVG/1.1/DTD/svg11.dtd">
<svg t="1694518272521" class="icon" viewBox="0 0 1024 1024" version="1.1"
  xmlns="http://www.w3.org/2000/svg" p-id="4977" xmlns:xlink="http://www.w3.org/1999/xlink"
  width="64" height="64">
  <path
    d="M732.8 182.912H286.72a25.6 25.6 0 0 1-25.472-25.472 25.6 25.6 0 0 1 25.536-25.472h445.952a25.6 25.6 0 0 1 25.472 25.472 25.6 25.6 0 0 1-25.472 25.472z"
    p-id="4978"></path>
  <path
    d="M885.696 446.08H133.76V101.952C133.824 45.952 179.712 0 235.776 0h547.968c56.064 0 101.952 45.888 101.952 101.952v344zM184.832 395.008h649.856v-293.12a51.136 51.136 0 0 0-50.944-50.944H235.776a51.136 51.136 0 0 0-50.944 51.008v293.056z m598.912 624.384H235.776a102.272 102.272 0 0 1-101.952-101.952v-140.16H885.76v140.16c0 56.064-45.888 101.952-101.952 101.952z m-598.912-191.104v89.152c0 28.032 22.912 51.008 50.944 51.008h547.968a51.136 51.136 0 0 0 50.944-51.008v-89.152H184.832z"
    p-id="4979"></path>
  <path
    d="M917.504 828.352H102.016A102.272 102.272 0 0 1 0 726.4V497.024c0-56.064 45.888-101.952 101.952-101.952h815.488c56.064 0 101.952 45.888 101.952 101.952v229.376c0 56.064-45.888 101.952-101.952 101.952zM102.016 446.016a51.136 51.136 0 0 0-51.008 51.008v229.376c0 28.032 22.976 50.944 51.008 50.944h815.488a51.136 51.136 0 0 0 51.008-50.944V497.024a51.136 51.136 0 0 0-51.008-51.008H102.016z m630.72-131.84H286.784a25.6 25.6 0 0 1-25.536-25.536 25.6 25.6 0 0 1 25.536-25.472h445.952a25.6 25.6 0 0 1 25.472 25.472 25.6 25.6 0 0 1-25.472 25.536z"
    p-id="4980"></path>
  <path
    d="M133.824 696.448V526.336h123.008v19.712H156.8v52.288h94.272v19.712H156.8v57.984h104.448v19.776h-127.36z"
    p-id="4981"></path>
  <path
    d="M260.608 699.648h-126.72c-1.92 0-3.2-1.28-3.2-3.2V526.336c0-1.92 1.28-3.2 3.2-3.2h122.88c1.92 0 3.2 1.28 3.2 3.2v19.712c0 1.92-1.28 3.2-3.2 3.2H160V595.2h91.072c1.92 0 3.2 1.28 3.2 3.2v19.712c0 1.92-1.28 3.2-3.2 3.2H160v51.584h101.248c1.92 0 3.2 1.28 3.2 3.2v19.776c-0.64 2.56-1.92 3.84-3.84 3.84z m-123.52-6.4h120.32v-13.376H156.8c-1.92 0-3.2-1.28-3.2-3.2v-57.984c0-1.92 1.28-3.2 3.2-3.2h91.072v-13.376H156.8c-1.92 0-3.2-1.28-3.2-3.2v-52.224c0-1.92 1.28-3.2 3.2-3.2h97.472v-13.312H136.96v163.072z m137.6 3.2l65.6-88.576-57.984-81.536h26.752l30.592 43.328c6.4 8.96 10.88 15.936 13.376 20.992 3.84-6.4 8.32-12.736 13.376-19.072l34.432-45.248h24.192l-59.904 80.256 64.384 89.856h-28.032l-42.688-60.544c-2.56-3.2-5.12-7.04-7.68-11.52-3.84 6.4-6.4 10.24-8.32 12.8l-42.624 59.264H274.56z"
    p-id="4982"></path>
  <path
    d="M430.72 699.648h-28.032c-1.28 0-1.92-0.64-2.56-1.28l-42.624-60.544c-1.28-2.56-3.2-4.48-5.12-7.04-2.56 3.84-4.48 7.04-5.76 8.32l-42.688 59.264c-0.64 0.64-1.28 1.28-2.56 1.28h-26.752c-1.28 0-2.56-0.64-2.56-1.92 0-1.28-0.64-2.56 0-3.2l64.384-86.656-56.704-79.616c-0.64-1.28-0.64-2.56 0-3.2 0.64-1.28 1.92-1.92 2.56-1.92h26.752c1.28 0 1.92 0.64 2.56 1.28l30.592 43.328 11.456 16.576c3.2-5.12 7.04-10.24 10.88-15.36l34.368-45.184c0.64-0.64 1.28-1.28 2.56-1.28h24.192c1.28 0 2.56 0.64 2.56 1.92 0.64 1.28 0.64 2.56 0 3.2l-58.624 78.336 63.68 88.576c0.64 1.28 0.64 2.56 0 3.2-0.64 1.28-1.28 1.92-2.56 1.92z m-26.112-6.4h19.776l-60.544-84.736a4.032 4.032 0 0 1 0-3.84l56.064-75.136h-16.576l-33.728 43.904c-5.12 6.4-9.6 13.44-13.44 19.2-0.64 1.216-1.28 1.856-2.56 1.216-1.216 0-1.856-0.64-2.496-1.92-2.56-4.48-7.04-11.456-13.376-20.352l-29.952-42.048H288.64l54.208 76.416c0.64 1.28 0.64 2.56 0 3.84l-61.824 83.456h19.136l41.408-57.984c1.28-2.56 4.48-6.4 8.32-12.736 0.64-0.64 1.856-1.28 2.496-1.28 1.28 0 1.92 0.64 2.56 1.28l7.68 11.52 41.984 59.2z m166.976-56.064l22.272 5.76c-4.48 18.432-13.376 32.448-25.472 42.048-12.16 9.536-27.392 14.656-45.248 14.656-18.496 0-33.152-3.84-44.608-11.52a70.016 70.016 0 0 1-26.112-32.448 120.128 120.128 0 0 1-8.96-45.888c0-17.856 3.2-33.152 10.24-46.528 7.04-13.376 16.576-22.912 28.672-29.952 12.736-7.04 26.112-10.176 41.408-10.176 17.216 0 31.232 4.48 42.688 12.8 11.52 8.832 19.776 20.992 24.192 36.288l-22.272 5.12c-3.84-12.16-9.6-21.76-17.216-26.816a45.632 45.632 0 0 0-28.032-8.32 53.12 53.12 0 0 0-32.512 9.6 50.24 50.24 0 0 0-18.432 25.472c-3.84 10.88-5.12 21.696-5.12 32.512 0 14.656 1.92 26.752 6.4 37.568 4.48 10.88 10.816 19.136 19.712 24.256 8.96 5.12 18.496 8.256 28.672 8.256 12.8 0 23.552-3.84 31.872-10.88 8.96-6.976 14.656-17.792 17.856-31.808z"
    p-id="4983"></path>
  <path
    d="M523.776 702.784c-19.136 0-34.432-3.84-46.528-11.456a72.64 72.64 0 0 1-27.392-33.728c-6.4-14.72-9.6-29.952-9.6-46.528 0-17.856 3.84-34.432 10.24-47.808 7.04-13.376 17.216-24.192 29.952-31.232 12.8-7.04 27.392-10.816 42.688-10.816 17.856 0 32.512 4.48 44.608 13.44 12.096 8.896 20.352 21.632 25.472 38.208v2.56c-0.64 0.64-1.28 1.28-1.92 1.28l-22.272 5.056c-1.92 0.64-3.2-0.64-3.84-1.92-3.84-11.52-8.96-20.416-15.936-25.472a43.648 43.648 0 0 0-26.112-7.68 51.2 51.2 0 0 0-30.592 8.96 45.76 45.76 0 0 0-17.216 23.552 107.52 107.52 0 0 0 1.28 68.8c3.84 10.24 10.24 17.856 18.496 22.336 8.32 5.12 17.216 7.68 27.392 7.68 11.52 0 21.696-3.2 29.952-10.24a51.2 51.2 0 0 0 16.576-30.592c0-0.64 0.64-1.28 1.28-1.92 0.64-0.64 1.92-0.64 2.56-0.64l22.272 5.76c0.64 0 1.28 0.64 1.92 1.28 0.64 0.64 0.64 1.92 0.64 2.56-5.12 19.072-14.08 33.728-26.752 43.904-13.44 9.6-28.672 14.72-47.168 14.72z m0-175.808c-14.656 0-28.032 3.2-39.488 9.6a62.912 62.912 0 0 0-27.392 28.608c-6.4 12.8-9.6 28.032-9.6 44.608 0 15.936 3.2 30.592 8.96 44.608 5.76 13.376 14.016 24.192 24.832 31.232 10.88 7.04 25.472 10.816 42.688 10.816 16.576 0 31.232-4.48 42.688-14.08 10.88-8.896 19.136-20.992 23.552-37.568l-15.936-3.84a60.48 60.48 0 0 1-17.792 31.296 52.864 52.864 0 0 1-33.792 11.456 58.112 58.112 0 0 1-30.592-8.32 52.032 52.032 0 0 1-20.992-25.472c-4.48-10.88-6.4-24.192-6.4-38.848 0-11.52 1.92-22.976 5.76-33.792 3.84-11.456 10.176-20.352 19.712-26.752 9.6-6.4 21.056-10.24 34.432-10.24 12.16 0 22.272 3.2 29.952 8.96 7.68 5.76 13.376 14.08 17.216 25.472l15.872-3.84c-4.48-13.312-12.096-24.192-22.272-31.808-10.88-7.68-24.832-12.16-41.408-12.16zM622.528 696.448V526.336h122.944v19.712h-100.672v52.288h94.336v19.712h-94.336v57.984h104.512v19.776H622.528z"
    p-id="4984"></path>
  <path
    d="M749.312 699.648H622.528c-1.92 0-3.2-1.28-3.2-3.2V526.336c0-1.92 1.28-3.2 3.2-3.2h122.944c1.92 0 3.2 1.28 3.2 3.2v19.712c0 1.92-1.28 3.2-3.2 3.2h-97.472V595.2h91.136c1.92 0 3.2 1.28 3.2 3.2v19.712c0 1.92-1.28 3.2-3.2 3.2h-91.136v51.584h101.312c1.92 0 3.2 1.28 3.2 3.2v19.776c0 2.56-1.92 3.84-3.2 3.84z m-123.584-6.4h120.384v-13.376h-101.312c-1.92 0-3.2-1.28-3.2-3.2v-57.984c0-1.92 1.28-3.2 3.2-3.2H736v-13.376h-91.136c-1.92 0-3.2-1.28-3.2-3.2v-52.224c0-1.92 1.28-3.2 3.2-3.2H742.4v-13.312H625.728v163.072zM779.264 696.448V526.336h22.272v149.76h84.16v19.712h-106.432z"
    p-id="4985"></path>
  <path
    d="M885.696 699.648h-106.432c-1.92 0-3.2-1.28-3.2-3.2V526.336c0-1.92 1.28-3.2 3.2-3.2h22.272c1.92 0 3.2 1.28 3.2 3.2v146.56h80.96c1.92 0 3.2 1.28 3.2 3.2v19.712c0 2.56-1.92 3.84-3.2 3.84z m-103.232-6.4h100.032v-13.376h-80.32c-1.92 0-3.2-1.28-3.2-3.2v-146.56h-15.872v163.136h-0.64z"
    p-id="4986"></path>
</svg>