<?xml version="1.0" standalone="no"?>
<!DOCTYPE svg PUBLIC "-//W3C//DTD SVG 1.1//EN" "http://www.w3.org/Graphics/SVG/1.1/DTD/svg11.dtd">
<svg t="1693995436563" class="icon" viewBox="0 0 1024 1024" version="1.1"
  xmlns="http://www.w3.org/2000/svg" p-id="993" xmlns:xlink="http://www.w3.org/1999/xlink"
  width="64" height="64">
  <path
    d="M307.2 938.688L418.112 938.688C554.688 938.68800001 640 853.312 640 716.8l0-172.8-266.688 0c-17.472 0-32-14.528-32-32 0-17.53599999 14.528-32 32-32L640 480l0-172.8c0-136.576-85.312-221.888-221.888-221.888l-110.464 0c-136.576 0-221.888 85.312-221.888 221.888L85.76 716.8c-0.448 136.512 84.928 221.824 221.44 221.824zM829.44 544l-88.32 88.32c-6.4 6.4-9.472 14.528-9.472 22.592a30.976 30.976 0 0 0 9.408 22.656 32.192 32.192 0 0 0 45.248 0L929.216 534.592a32.192 32.192 0 0 0 0-45.184l-142.912-142.912a32.192 32.192 0 0 0-45.248 0 32.192 32.192 0 0 0 0 45.184L829.44 480 640 480l0 64L829.44 544z"
    p-id="994"></path>
</svg>